<?xml version="1.0" standalone="no"?>
<!DOCTYPE svg PUBLIC "-//W3C//DTD SVG 20010904//EN"
 "http://www.w3.org/TR/2001/REC-SVG-20010904/DTD/svg10.dtd">
<svg version="1.0" xmlns="http://www.w3.org/2000/svg"
 width="4680.000000pt" height="3596.000000pt" viewBox="0 0 4680.000000 3596.000000"
 preserveAspectRatio="xMidYMid meet">

<g transform="translate(0.000000,3596.000000) scale(0.100000,-0.100000)"
fill="#000000" stroke="none">
<path d="M0 17980 l0 -17980 23400 0 23400 0 0 17980 0 17980 -23400 0 -23400
0 0 -17980z m23387 9865 c159 -24 276 -91 442 -255 73 -72 130 -143 176 -219
6 -9 27 -41 48 -72 20 -31 37 -60 37 -66 0 -5 6 -15 12 -21 21 -21 164 -291
192 -362 3 -8 10 -22 15 -30 16 -25 61 -128 61 -139 0 -6 9 -28 20 -48 11 -21
20 -47 20 -58 0 -11 7 -30 15 -42 8 -12 20 -44 26 -71 10 -51 39 -89 58 -77 6
3 11 13 11 22 0 23 109 239 160 318 11 17 27 44 36 60 27 49 193 265 233 305
45 43 128 110 139 110 5 0 15 6 21 14 15 17 98 58 168 81 106 35 274 15 393
-46 62 -31 209 -149 266 -212 41 -46 74 -90 109 -146 6 -9 27 -41 48 -72 20
-31 37 -60 37 -66 0 -5 6 -15 12 -21 22 -22 146 -259 203 -387 7 -16 25 -56
39 -87 14 -31 26 -64 26 -73 0 -9 6 -26 14 -38 8 -12 19 -40 25 -62 10 -42 34
-119 53 -170 6 -16 16 -55 24 -85 7 -30 20 -73 28 -95 8 -22 15 -51 16 -63 0
-13 7 -38 14 -55 8 -18 20 -54 25 -82 6 -27 18 -79 27 -115 41 -162 64 -263
85 -380 5 -30 16 -84 25 -120 8 -36 19 -99 24 -140 5 -41 16 -106 24 -145 9
-38 16 -95 16 -125 0 -30 7 -82 15 -115 8 -33 17 -103 21 -155 3 -52 12 -133
20 -180 7 -47 18 -161 24 -255 6 -93 15 -197 20 -230 21 -135 33 -986 21
-1466 -6 -255 -16 -491 -21 -524 -5 -33 -14 -143 -20 -245 -6 -102 -15 -201
-20 -220 -6 -19 -15 -96 -20 -170 -6 -74 -15 -152 -21 -172 -5 -20 -14 -85
-20 -145 -5 -59 -16 -133 -23 -163 -8 -30 -17 -83 -20 -118 -3 -35 -12 -87
-20 -115 -8 -29 -18 -79 -21 -112 -4 -33 -11 -67 -16 -76 -5 -9 -14 -50 -20
-90 -6 -41 -15 -82 -20 -91 -5 -10 -16 -50 -23 -90 -15 -76 -28 -128 -53 -213
-9 -27 -21 -75 -28 -105 -7 -30 -17 -68 -23 -85 -6 -16 -20 -64 -32 -105 -12
-41 -31 -98 -41 -125 -11 -28 -19 -59 -19 -70 0 -11 -9 -37 -20 -58 -11 -20
-20 -45 -20 -54 0 -10 -9 -31 -20 -48 -11 -16 -20 -36 -20 -43 0 -7 -11 -37
-24 -65 -13 -29 -26 -59 -30 -67 -3 -8 -10 -22 -15 -30 -5 -8 -14 -26 -20 -40
-6 -14 -15 -32 -19 -40 -10 -18 -29 -51 -54 -100 -10 -19 -30 -53 -43 -75 -13
-22 -28 -49 -33 -60 -6 -12 -17 -27 -26 -34 -9 -7 -16 -18 -16 -24 0 -32 -145
-215 -235 -298 -59 -54 -164 -129 -180 -129 -5 0 -16 -6 -24 -14 -24 -20 -177
-56 -240 -56 -65 1 -177 29 -241 62 -134 68 -242 167 -356 326 -76 107 -94
133 -94 141 0 5 -7 15 -16 22 -9 7 -20 22 -26 34 -5 11 -20 38 -33 60 -26 44
-116 224 -133 268 -14 33 -39 35 -51 5 -20 -54 -43 -125 -50 -154 -5 -18 -16
-42 -25 -55 -9 -13 -16 -30 -16 -38 0 -7 -10 -35 -21 -60 -31 -66 -66 -144
-73 -161 -3 -8 -10 -22 -15 -30 -5 -8 -14 -26 -20 -40 -6 -14 -15 -32 -21 -40
-5 -8 -42 -73 -82 -143 -96 -167 -88 -156 -168 -272 -8 -12 -24 -35 -34 -51
-29 -43 -200 -210 -248 -241 -22 -16 -53 -36 -67 -45 -14 -10 -37 -23 -51 -29
-14 -6 -38 -17 -55 -26 -16 -8 -70 -21 -120 -28 -104 -16 -233 -6 -300 25 -76
34 -90 41 -120 57 -100 53 -321 274 -379 378 -20 37 -32 55 -74 118 -18 26
-37 58 -43 70 -6 12 -21 40 -34 62 -25 41 -154 300 -185 370 -10 22 -28 61
-39 86 -12 25 -21 52 -21 58 0 6 -9 29 -20 51 -11 22 -20 48 -20 60 0 11 -9
37 -20 57 -11 21 -20 49 -20 63 0 14 -7 38 -15 53 -8 15 -19 49 -24 75 -5 26
-16 67 -24 92 -44 133 -57 177 -57 198 0 13 -7 36 -15 51 -8 16 -17 48 -21 72
-3 24 -14 70 -25 102 -10 31 -19 70 -19 87 0 16 -7 47 -15 67 -8 21 -19 65
-24 98 -5 33 -16 89 -24 125 -19 82 -35 166 -48 250 -6 36 -17 97 -25 137 -9
39 -19 114 -24 165 -5 51 -14 108 -19 127 -6 19 -13 75 -17 125 -3 50 -12 128
-20 173 -8 45 -19 146 -24 225 -5 79 -14 166 -19 195 -6 28 -15 153 -21 277
-5 124 -15 269 -22 323 -20 162 -17 1355 4 1613 9 113 20 268 23 345 4 76 11
162 16 190 5 27 14 120 20 205 5 85 14 171 20 190 5 19 14 89 19 155 6 66 17
154 24 195 8 41 20 116 25 165 6 50 16 113 21 140 24 126 43 226 55 300 8 44
19 98 24 120 22 86 44 182 52 229 4 26 15 67 22 90 8 22 19 64 25 91 15 72 58
229 89 325 8 25 19 67 25 95 5 27 15 61 23 75 7 14 16 43 20 65 4 22 11 45 16
51 5 7 16 34 23 60 17 61 42 128 63 174 8 19 24 53 34 75 31 71 160 329 184
370 13 22 28 50 34 62 6 12 26 45 46 72 19 28 35 55 35 59 0 5 9 17 20 27 11
10 20 24 20 31 0 7 26 46 58 86 86 107 242 250 317 291 30 16 43 22 121 58 23
11 59 20 80 20 21 1 53 5 69 9 17 4 33 8 36 9 3 0 51 -6 106 -14z m-8905
-12904 c35 -6 119 -15 188 -21 69 -6 139 -15 157 -21 17 -5 69 -16 115 -24 45
-7 103 -19 128 -25 116 -31 189 -53 235 -71 28 -10 57 -19 65 -19 9 0 32 -9
53 -20 20 -11 42 -20 48 -20 5 0 34 -11 62 -24 29 -13 59 -26 67 -30 8 -3 22
-10 30 -15 8 -5 26 -14 40 -20 43 -19 159 -86 172 -99 6 -6 16 -12 22 -12 9 0
78 -46 192 -128 134 -97 326 -283 459 -447 23 -28 70 -95 106 -150 85 -132 87
-135 104 -170 9 -16 20 -37 25 -45 6 -8 14 -26 20 -40 5 -14 14 -32 19 -40 13
-21 47 -97 64 -145 8 -22 21 -56 28 -75 45 -126 62 -184 81 -275 5 -27 16 -73
24 -100 7 -28 18 -93 24 -145 6 -52 15 -113 20 -135 15 -61 23 -483 12 -625
-13 -154 -41 -353 -61 -435 -18 -69 -41 -168 -51 -213 -5 -24 -16 -53 -25 -65
-8 -12 -15 -32 -15 -46 0 -13 -9 -45 -21 -70 -11 -25 -30 -66 -41 -91 -11 -25
-28 -63 -38 -85 -10 -22 -23 -51 -29 -65 -6 -14 -22 -43 -36 -65 -13 -22 -31
-53 -39 -70 -9 -16 -21 -39 -28 -50 -7 -11 -24 -38 -37 -60 -14 -22 -30 -44
-35 -50 -6 -5 -31 -39 -55 -75 -24 -36 -54 -75 -65 -86 -12 -12 -48 -52 -81
-89 -115 -131 -226 -234 -360 -335 -22 -16 -44 -33 -50 -37 -15 -12 -127 -84
-167 -108 -9 -5 -65 -34 -125 -64 -59 -30 -124 -62 -144 -72 -20 -11 -45 -19
-56 -19 -10 0 -23 -4 -29 -10 -11 -11 -103 -44 -179 -65 -27 -8 -68 -21 -90
-29 -22 -8 -53 -15 -68 -16 -15 0 -44 -7 -63 -15 -19 -8 -70 -19 -113 -24 -42
-6 -89 -14 -103 -20 -15 -6 -89 -15 -165 -21 -76 -6 -169 -15 -208 -20 -40 -5
-547 -9 -1181 -10 -1005 0 -1112 2 -1118 16 -3 9 -6 1228 -6 2709 0 2326 2
2695 14 2702 23 13 2234 7 2308 -6z m4116 7 c9 -9 12 -624 12 -2707 0 -1483
-4 -2702 -8 -2709 -7 -9 -89 -12 -377 -10 l-369 3 -7 25 c-8 30 -11 5346 -3
5377 3 12 16 24 28 26 11 2 176 5 367 6 256 1 348 -2 357 -11z m1520 -24 c15
-17 40 -46 56 -65 16 -19 78 -94 137 -167 60 -73 115 -140 124 -149 9 -9 35
-41 57 -72 22 -31 46 -60 52 -66 7 -5 61 -71 121 -145 60 -74 116 -143 124
-152 25 -27 42 -47 79 -97 19 -25 38 -48 42 -51 3 -3 56 -66 117 -141 120
-149 131 -162 153 -188 8 -9 28 -35 44 -56 16 -22 38 -48 47 -58 10 -9 64 -74
120 -145 56 -70 107 -131 114 -137 6 -5 30 -35 53 -67 23 -31 53 -69 68 -85
15 -15 72 -84 127 -153 155 -193 162 -200 187 -200 11 0 20 4 20 9 0 10 91
125 141 179 9 9 89 109 179 222 90 113 173 214 184 226 12 11 30 33 41 49 25
36 66 87 81 100 6 6 57 69 114 140 57 72 108 135 114 140 6 6 30 35 53 65 36
48 62 79 115 140 7 8 34 41 60 75 27 33 54 67 60 75 7 8 53 64 102 125 49 60
112 137 140 169 28 32 58 71 68 85 9 14 31 43 50 63 18 20 87 104 153 187 66
82 134 157 150 166 26 14 68 16 336 13 241 -2 309 -6 322 -17 16 -12 17 -213
17 -2690 0 -2137 -3 -2681 -13 -2701 l-13 -25 -365 -3 c-309 -2 -368 0 -378
12 -9 11 -13 488 -17 2038 -3 1113 -4 2031 -4 2041 0 33 -27 17 -68 -40 -35
-51 -53 -73 -114 -143 -7 -8 -34 -41 -60 -75 -26 -33 -54 -67 -61 -75 -8 -8
-96 -118 -197 -245 -101 -126 -192 -239 -201 -250 -10 -11 -48 -58 -85 -105
-37 -47 -73 -89 -79 -95 -7 -5 -31 -36 -55 -69 -23 -32 -51 -67 -62 -78 -11
-11 -49 -59 -86 -106 -36 -48 -69 -89 -73 -92 -4 -3 -129 -158 -279 -345 -274
-343 -299 -368 -329 -333 -6 7 -42 52 -79 99 -37 47 -76 94 -86 104 -10 10
-36 43 -58 74 -22 31 -46 61 -52 66 -7 6 -124 150 -261 320 -137 171 -256 318
-264 327 -35 38 -83 97 -116 143 -11 15 -31 39 -44 54 -13 14 -105 127 -204
251 -99 124 -185 230 -191 235 -6 6 -30 35 -53 67 -23 31 -54 69 -67 85 -43
47 -49 55 -96 113 -51 64 -77 98 -89 119 -5 8 -16 11 -25 8 -15 -6 -16 -185
-16 -2045 0 -1572 -3 -2041 -12 -2050 -9 -9 -106 -12 -374 -12 l-363 0 -15 22
c-14 20 -16 293 -16 2705 l0 2682 23 16 c19 14 62 15 335 13 l314 -3 26 -31z
m8160 24 c18 -18 17 -667 0 -691 -12 -16 -97 -17 -1183 -20 l-1170 -2 0 -815
0 -815 1145 -5 c630 -3 1146 -6 1148 -8 1 -1 2 -152 2 -335 0 -246 -3 -336
-12 -345 -9 -9 -277 -12 -1144 -12 -1023 0 -1132 -2 -1138 -16 -3 -9 -6 -382
-6 -829 0 -732 2 -813 16 -819 9 -3 548 -6 1199 -6 1161 0 1185 0 1195 -19 6
-13 10 -137 10 -336 0 -199 -4 -323 -10 -336 -11 -19 -39 -19 -1589 -19 -1312
0 -1580 2 -1590 13 -9 12 -14 2498 -11 5375 0 24 6 35 23 42 36 14 3100 13
3115 -2z m1582 -21 c45 -44 83 -86 210 -232 57 -66 119 -136 136 -155 66 -73
88 -97 142 -159 32 -36 97 -109 145 -164 165 -185 225 -253 297 -336 30 -35
71 -80 90 -100 19 -20 48 -52 64 -71 36 -44 133 -155 166 -190 48 -52 87 -96
200 -225 63 -71 119 -135 124 -141 41 -42 166 -183 195 -220 20 -24 43 -44 52
-44 8 0 40 28 70 62 30 34 65 73 77 87 13 14 49 55 80 90 32 35 62 69 67 75 6
6 35 40 65 76 30 36 57 67 61 70 12 10 177 198 224 255 28 32 66 76 85 96 53
56 99 108 155 176 50 59 169 195 210 237 11 12 42 48 70 81 27 32 56 66 65 75
8 9 41 45 72 80 31 36 71 81 88 100 18 19 66 76 108 125 42 50 79 92 83 95 9
8 181 202 215 243 l30 37 480 1 c263 0 485 0 492 0 31 -2 -5 -63 -98 -162 -26
-28 -77 -85 -227 -257 -80 -92 -151 -171 -157 -177 -6 -5 -38 -41 -70 -80 -59
-70 -173 -200 -211 -239 -11 -12 -42 -48 -69 -81 -27 -33 -57 -67 -65 -76 -44
-45 -203 -225 -340 -384 -14 -16 -62 -71 -106 -120 -44 -50 -109 -124 -145
-165 -60 -71 -109 -125 -155 -174 -11 -11 -42 -48 -69 -81 -27 -33 -57 -67
-65 -76 -9 -8 -43 -46 -76 -83 -33 -38 -69 -78 -80 -90 -11 -13 -47 -54 -80
-91 -141 -162 -181 -207 -237 -267 -16 -16 -28 -37 -28 -47 0 -18 33 -65 75
-107 16 -16 135 -147 180 -198 127 -145 214 -242 246 -276 9 -10 67 -75 130
-146 62 -71 118 -134 123 -140 6 -6 25 -26 41 -45 17 -19 53 -59 80 -89 28
-31 77 -86 110 -124 33 -38 71 -81 85 -95 35 -38 144 -160 301 -336 73 -82
152 -170 175 -195 23 -25 59 -65 79 -90 38 -45 166 -189 196 -219 14 -14 75
-82 249 -280 30 -35 73 -82 95 -105 22 -24 65 -72 96 -107 31 -35 84 -95 118
-134 34 -38 60 -74 58 -80 -3 -7 -169 -11 -493 -13 l-489 -2 -25 23 c-30 29
-153 165 -205 227 -21 25 -70 80 -109 124 -39 43 -80 88 -91 100 -11 12 -47
53 -80 91 -33 38 -100 113 -148 168 -144 161 -137 154 -297 336 -30 35 -71 80
-90 100 -19 20 -75 84 -125 141 -49 58 -99 114 -110 126 -22 22 -131 144 -191
214 -89 102 -99 113 -210 236 -39 44 -98 111 -131 149 -87 102 -149 165 -162
165 -6 0 -23 -14 -38 -32 -16 -17 -39 -43 -53 -58 -32 -34 -71 -79 -140 -160
-30 -35 -62 -71 -70 -80 -25 -27 -155 -172 -210 -235 -62 -71 -189 -212 -210
-235 -8 -9 -40 -45 -70 -80 -30 -36 -61 -72 -70 -81 -8 -8 -42 -46 -75 -84
-33 -37 -65 -73 -71 -79 -5 -6 -61 -69 -124 -141 -62 -71 -120 -137 -129 -146
-25 -25 -80 -87 -160 -179 -73 -85 -183 -209 -231 -260 -32 -34 -70 -78 -140
-160 -30 -35 -82 -92 -114 -127 l-60 -63 -487 0 c-273 0 -490 4 -493 9 -3 5 1
14 9 21 8 7 15 17 15 23 0 5 10 19 23 31 12 12 36 38 52 57 87 101 113 130
174 198 36 41 75 84 86 95 11 12 42 48 69 81 27 33 57 67 65 76 9 9 30 32 48
52 68 75 211 236 268 302 65 74 88 100 138 155 18 19 79 89 136 155 58 66 114
130 125 141 12 12 46 50 76 84 142 163 269 306 320 360 14 15 61 69 105 120
44 52 89 103 100 116 11 12 35 38 53 58 18 20 83 93 144 164 61 70 118 134
127 143 9 8 43 46 76 84 33 37 65 73 70 79 6 6 35 40 65 76 30 36 61 69 67 73
21 13 15 30 -20 67 -18 19 -55 62 -83 95 -27 33 -58 69 -69 81 -38 39 -154
169 -190 214 -32 38 -147 168 -195 220 -8 8 -40 45 -70 80 -60 71 -102 119
-138 159 -13 14 -49 55 -80 90 -32 35 -64 71 -72 80 -9 9 -40 45 -70 81 -30
35 -62 72 -70 81 -54 59 -93 103 -224 254 -82 94 -154 175 -160 180 -6 6 -36
39 -66 75 -81 95 -107 124 -229 259 -40 44 -96 109 -125 144 -28 34 -60 72
-71 83 -37 38 -162 179 -213 239 -27 33 -73 85 -101 115 -54 58 -62 76 -33 83
9 2 229 5 487 6 l470 1 35 -33z"/>
<path d="M23819 26439 c-102 -15 -200 -78 -327 -210 -43 -45 -122 -153 -122
-166 0 -3 -7 -14 -16 -24 -17 -19 -34 -48 -88 -156 -20 -40 -41 -75 -46 -78
-6 -3 -10 -14 -10 -24 0 -10 -9 -30 -20 -44 -11 -14 -20 -31 -20 -37 0 -7 -8
-31 -19 -54 -40 -89 -90 -222 -110 -296 -25 -92 -50 -176 -60 -205 -5 -16 -14
-50 -19 -75 -6 -25 -14 -58 -20 -75 -14 -42 -42 -158 -57 -240 -7 -38 -18 -83
-24 -98 -6 -16 -11 -43 -11 -61 0 -18 -9 -66 -19 -107 -10 -41 -22 -106 -25
-145 -4 -39 -13 -95 -21 -125 -8 -30 -15 -76 -15 -104 0 -27 -7 -93 -15 -145
-9 -52 -20 -156 -25 -230 -6 -74 -18 -191 -27 -260 -15 -109 -17 -224 -17
-880 0 -519 4 -782 12 -840 7 -47 17 -148 23 -225 5 -77 17 -185 25 -240 8
-55 19 -145 24 -200 5 -55 13 -116 19 -135 5 -19 15 -79 21 -133 5 -55 14
-107 19 -116 5 -9 13 -46 16 -81 4 -36 13 -87 22 -113 8 -26 19 -71 23 -100
11 -64 35 -160 61 -247 10 -36 19 -74 19 -85 0 -11 7 -32 15 -48 8 -15 19 -53
24 -84 6 -30 15 -61 20 -67 5 -6 13 -34 19 -61 6 -28 18 -64 26 -80 9 -17 16
-38 16 -48 0 -9 9 -34 20 -54 11 -21 20 -44 20 -51 0 -8 6 -26 14 -40 8 -15
37 -74 66 -132 28 -58 62 -123 75 -145 14 -22 31 -51 38 -65 6 -14 21 -38 31
-55 11 -16 35 -55 55 -85 19 -30 56 -77 81 -104 49 -53 183 -166 197 -166 5 0
24 -9 44 -19 57 -31 172 -43 261 -27 41 7 85 20 99 29 13 9 30 17 39 17 8 0
31 15 51 33 20 18 56 50 82 71 53 43 127 136 127 158 0 9 -7 29 -15 44 -8 16
-15 39 -15 50 0 12 -9 41 -20 65 -11 24 -20 54 -20 67 0 13 -7 36 -15 53 -9
16 -20 48 -25 72 -5 23 -15 62 -23 87 -20 63 -36 123 -53 203 -7 37 -18 75
-23 85 -5 9 -12 40 -16 67 -3 28 -12 68 -20 90 -8 22 -19 72 -24 110 -6 39
-17 95 -26 125 -8 30 -15 70 -15 90 0 20 -7 63 -16 95 -8 33 -19 103 -24 155
-5 52 -13 110 -19 128 -6 19 -13 73 -16 120 -4 48 -13 123 -21 167 -8 44 -18
143 -24 220 -5 77 -14 167 -20 200 -5 32 -14 163 -20 290 -6 126 -14 277 -20
335 -12 138 -12 1042 0 1190 5 63 14 216 20 340 6 124 15 250 20 280 6 30 15
125 21 210 5 85 14 171 19 190 6 19 15 89 21 155 5 65 17 146 24 180 8 33 15
80 15 105 0 25 7 74 15 110 8 36 20 103 26 150 6 47 15 93 20 102 5 10 14 53
19 97 6 44 17 95 24 113 7 18 16 56 20 85 4 28 13 68 21 87 8 19 15 48 15 63
1 15 8 46 16 68 9 22 20 63 25 90 4 28 15 66 22 85 8 19 19 53 25 75 5 22 14
54 20 70 5 17 17 53 27 80 9 28 21 70 27 95 6 25 17 54 24 65 17 24 18 81 1
92 -7 4 -32 32 -56 61 -52 63 -169 159 -231 189 -45 21 -154 44 -201 42 -13
-1 -49 -5 -80 -10z"/>
<path d="M25845 25216 c-16 -7 -47 -16 -67 -20 -29 -5 -56 -25 -117 -86 -44
-44 -87 -94 -96 -112 -8 -18 -25 -49 -36 -68 -36 -58 -119 -221 -119 -234 0
-6 -9 -28 -20 -49 -11 -20 -20 -45 -20 -54 -1 -10 -9 -36 -20 -58 -11 -22 -19
-50 -20 -62 0 -13 -9 -49 -19 -80 -11 -32 -23 -78 -26 -103 -4 -25 -12 -53
-17 -64 -5 -10 -14 -48 -19 -85 -5 -36 -16 -84 -24 -106 -7 -22 -17 -69 -20
-103 -3 -35 -11 -76 -16 -90 -6 -15 -15 -67 -20 -117 -5 -49 -16 -124 -24
-165 -8 -41 -19 -138 -25 -215 -7 -77 -16 -174 -20 -215 -5 -41 -9 -284 -10
-540 -1 -464 10 -660 50 -955 5 -38 14 -106 20 -150 6 -44 17 -109 25 -145 9
-36 19 -94 24 -130 8 -60 27 -148 52 -245 6 -22 16 -69 23 -105 12 -61 26
-111 63 -220 8 -25 17 -56 20 -70 2 -14 14 -45 25 -70 12 -25 30 -65 41 -90
11 -25 24 -52 28 -60 5 -8 25 -48 46 -88 20 -40 43 -78 50 -84 7 -6 13 -17 13
-24 0 -8 39 -54 88 -102 85 -85 89 -88 163 -106 72 -18 79 -18 145 -1 130 32
231 140 347 371 73 143 87 174 87 187 0 7 9 29 20 50 11 20 20 47 20 59 0 13
9 43 20 67 11 24 20 54 20 67 0 13 9 50 19 81 11 32 22 81 26 108 4 28 11 58
17 68 5 10 16 55 23 100 8 45 18 105 24 132 29 138 43 229 52 317 5 54 14 119
20 145 15 66 39 466 46 763 6 277 -18 828 -43 970 -8 47 -19 128 -24 180 -5
52 -16 124 -25 160 -8 36 -15 81 -15 101 0 20 -7 55 -15 78 -8 24 -19 75 -24
115 -5 40 -13 82 -19 92 -5 10 -13 42 -17 69 -4 28 -15 77 -25 110 -10 33 -23
80 -29 105 -28 108 -34 127 -52 166 -11 22 -19 46 -19 53 0 7 -6 25 -14 39 -8
15 -29 56 -46 92 -28 57 -43 84 -94 175 -68 120 -164 208 -263 242 -78 26 -96
27 -138 9z"/>
<path d="M12939 14234 c-12 -15 -12 -3985 0 -3997 12 -12 1470 -1 1531 11 25
6 81 15 125 22 80 12 214 42 270 62 17 5 53 16 80 23 28 7 64 20 80 29 17 9
36 16 43 16 8 0 26 6 40 14 15 8 56 29 92 46 36 18 88 45 115 60 28 16 60 33
73 39 12 6 22 15 22 20 0 5 9 13 21 16 34 11 220 165 296 246 100 105 206 241
241 309 7 14 24 43 37 65 14 22 29 51 35 65 25 56 52 117 66 142 8 14 14 34
14 43 0 9 8 35 19 58 10 23 22 62 26 86 4 24 13 58 20 75 7 17 16 60 19 96 4
36 14 92 22 125 17 74 20 544 3 626 -6 30 -16 92 -23 139 -16 100 -43 213 -62
255 -7 17 -16 44 -20 60 -3 17 -14 48 -24 70 -31 68 -59 129 -65 145 -3 8 -17
33 -30 55 -14 22 -31 51 -37 65 -21 41 -49 80 -124 175 -98 123 -164 191 -264
275 -109 90 -102 85 -131 100 -13 7 -43 28 -66 46 -23 19 -48 34 -56 34 -8 0
-25 8 -38 18 -13 10 -35 23 -49 30 -14 6 -32 16 -40 21 -8 5 -44 21 -80 36
-36 14 -76 32 -90 39 -14 8 -42 17 -64 20 -21 4 -52 13 -70 20 -46 20 -182 56
-209 56 -13 0 -66 10 -118 21 -90 21 -125 22 -857 28 -548 4 -766 3 -773 -5z"/>
</g>
</svg>
